# xmcd CD database file
#
# Track frame offsets:
#	150
#	111928
#	175490
#
# Disc length: 2909 seconds
#
# Revision: 2
# Processed by: cddbd v1.5.1PL2 Copyright (c) Steve Scherf et al.
# Submitted via: CDex 1.50
#
DISCID=230b5b03
DTITLE=Terry Oldfield - Out of the Depths (De Profundis)
DYEAR=1993
DGENRE=New Age
TTITLE0=De Profundis
TTITLE1=Out of the Depths
TTITLE2=Hear My Plea
EXTD=YEAR: 1993
EXTT0=
EXTT1=
EXTT2=
PLAYORDER=
